<svg width="112" height="112" viewBox="0 0 112 112" fill="none" xmlns="http://www.w3.org/2000/svg">
<path d="M30.9499 0.0856789C31.2518 0.0833186 31.2518 0.0833186 31.5602 0.0833186C31.7801 0.0833186 32.0022 0.0833186 32.2287 0.0833186C32.5823 0.0809582 32.5823 0.0809582 32.9403 0.0809582C33.7317 0.0762374 34.5232 0.0762374 35.3146 0.0762374C35.8796 0.073877 36.4467 0.0715167 37.0117 0.0715167C38.7132 0.0667959 40.4147 0.0644355 42.1183 0.0620751C42.9205 0.0597148 43.7227 0.0597148 44.5271 0.0573544C47.199 0.054994 49.873 0.0502733 52.5449 0.0479129C53.2393 0.0479129 53.9337 0.0479129 54.6281 0.0479129C54.8006 0.0479129 54.9731 0.0479129 55.15 0.0479129C57.934 0.0455525 60.718 0.0384714 63.502 0.0313902C66.368 0.0243091 69.2318 0.0195883 72.0956 0.0195883C73.7 0.0195883 75.3066 0.017228 76.9132 0.0101468C78.2826 0.00542607 79.6519 0.00306569 81.0213 0.00542607C81.7179 0.00778645 82.4144 0.00542607 83.1131 0.000705312C90.9929 -0.0417815 98.7325 1.82764 104.805 7.66957C104.993 7.85132 105.183 8.03307 105.377 8.21718C109.498 12.4352 111.768 18.6902 111.991 24.7918C112.198 34.3536 108.972 42.5866 103.106 49.6041C102.722 50.069 102.353 50.5435 101.989 51.0274C101.407 51.7756 100.764 52.4058 100.082 53.0384C99.7892 53.3122 99.5046 53.5907 99.2242 53.8787C92.2005 61.0542 82.1147 66.0158 72.6736 67.8592C72.4277 67.9088 72.1819 67.9583 71.9296 68.0103C65.5162 69.2778 65.5162 69.2778 62.5381 69.0394C62.5381 68.8836 62.5381 68.7278 62.5381 68.5673C64.1403 67.5571 64.1403 67.5571 64.9102 67.1511C64.9102 66.9953 64.9102 66.8395 64.9102 66.679C65.0396 66.6177 65.1668 66.5539 65.3005 66.4878C65.7663 66.2447 65.7663 66.2447 66.0445 65.9025C66.7583 65.1377 67.5972 64.5311 68.4016 63.8843C68.863 63.4949 69.2491 63.1196 69.6545 62.6664C70.0771 62.31 70.5084 61.9701 70.9397 61.6278C71.4142 61.2218 71.8174 60.7734 72.2423 60.306C72.5808 60.0039 72.9216 59.7041 73.2666 59.4067C74.9465 57.9149 76.5056 56.2816 78.0648 54.6411C78.1877 54.5113 78.3128 54.3815 78.44 54.2469C81.651 50.8739 81.651 50.8739 84.1029 46.8519C84.2453 46.8519 84.3876 46.8519 84.5342 46.8519C84.6054 46.5403 84.6766 46.2287 84.7499 45.9077C84.8922 45.9077 85.0345 45.9077 85.1812 45.9077C85.2372 45.7354 85.2955 45.5607 85.3537 45.3813C85.6103 44.7346 85.8971 44.2672 86.2853 43.7102C87.2557 42.235 87.9415 40.6299 88.6574 38.9989C88.8472 38.5905 88.8472 38.5905 89.1922 38.0004C89.5826 37.238 89.7788 36.4544 89.9664 35.6117C90.0031 35.4441 90.0397 35.2766 90.0786 35.1066C90.7039 32.1325 90.3934 29.555 88.996 26.9114C87.8056 24.9759 85.813 23.8901 83.7773 23.3496C82.6581 23.1395 81.5238 23.1843 80.3916 23.1867C80.1027 23.1867 79.8137 23.1843 79.5247 23.1843C78.7354 23.1796 77.9462 23.1796 77.1569 23.182C76.3051 23.182 75.4511 23.1796 74.5993 23.1773C73.1243 23.1725 71.6471 23.1702 70.172 23.1702C68.0371 23.1678 65.9022 23.1631 63.7673 23.1584C60.3018 23.1513 56.8385 23.1442 53.373 23.1395C53.166 23.1371 52.959 23.1371 52.7455 23.1371C51.0634 23.1348 49.3814 23.1324 47.6993 23.1301C46.2264 23.1277 44.7557 23.1253 43.2828 23.123C43.0758 23.123 42.8688 23.123 42.6553 23.123C39.2006 23.1182 35.748 23.1112 32.2955 23.1017C30.1649 23.097 28.0343 23.0923 25.9037 23.0923C24.4459 23.0899 22.9881 23.0876 21.5303 23.0852C20.6872 23.0828 19.8461 23.0805 19.0029 23.0805C18.0929 23.0828 17.1807 23.0781 16.2707 23.0758C15.8674 23.0758 15.8674 23.0758 15.4555 23.0781C15.214 23.0758 14.9703 23.0758 14.7223 23.0734C14.511 23.0734 14.2996 23.0734 14.084 23.0734C13.5858 23.012 13.5858 23.012 13.1545 22.54C13.0748 21.7658 13.0661 21.2937 13.4263 20.6115C13.5578 20.4439 13.6915 20.2787 13.8274 20.1064C13.9826 19.9058 14.1379 19.7075 14.2975 19.5022C14.3881 19.3865 14.4786 19.2732 14.5714 19.1575C15.0673 18.525 15.5526 17.8806 16.0378 17.2362C16.303 16.8845 16.5704 16.5328 16.8357 16.1835C17.3856 15.4612 17.9182 14.746 18.3883 13.9576C18.8067 13.2613 19.3005 12.7444 19.8397 12.1543C20.1092 11.7577 20.3637 11.3518 20.6138 10.9387C21.0279 10.3462 21.5131 9.8482 21.9961 9.32184C22.4102 8.81908 22.8091 8.30452 23.2081 7.78759C23.3116 7.65777 23.4151 7.52559 23.5208 7.39105C23.9607 6.8222 24.351 6.28639 24.6961 5.64201C25.0842 4.95042 25.5651 4.45946 26.0935 3.89297C26.4169 3.46102 26.7361 3.02199 27.0509 2.5806C28.1529 1.08884 29.1147 0.0903997 30.9499 0.0856789Z" fill="#0CA16B"/>
<path d="M47.3284 28.3883C47.5333 28.3883 47.736 28.3883 47.9473 28.3883C48.6201 28.3883 49.293 28.393 49.9679 28.3954C50.4337 28.3978 50.9017 28.3978 51.3697 28.3978C52.5988 28.4001 53.828 28.4048 55.0572 28.4096C56.3123 28.4143 57.5652 28.4166 58.8203 28.419C61.2809 28.4237 63.7436 28.4308 66.2041 28.4426C66.0079 29.5071 65.4644 30.2247 64.8693 31.0674C64.6989 31.3152 64.6989 31.3152 64.5221 31.5654C64.1511 32.0988 63.7759 32.6323 63.4007 33.1634C63.2735 33.3428 63.1484 33.5198 63.0168 33.7039C62.3785 34.6079 61.738 35.5072 61.0954 36.4065C60.4808 37.2704 59.8705 38.1367 59.2624 39.0053C57.3496 41.7292 55.4087 44.4295 53.4118 47.0802C53.166 47.4059 52.9223 47.7316 52.6786 48.0574C52.3163 48.5436 51.9497 49.0275 51.581 49.509C51.471 49.6553 51.3632 49.8017 51.251 49.9527C49.7588 51.8764 47.8718 52.2848 45.6895 52.8277C45.2754 52.9339 44.8614 53.0401 44.4473 53.1463C43.8672 53.295 43.2871 53.4414 42.707 53.5877C41.9738 53.7718 41.2406 53.9583 40.5096 54.1471C39.675 54.3596 38.8426 54.5744 38.0081 54.7844C36.4036 55.1904 34.8057 55.6153 33.2099 56.059C33.8374 56.2479 34.4412 56.3494 35.0903 56.4131C35.2887 56.432 35.4871 56.4509 35.692 56.4721C35.9055 56.491 36.1168 56.5099 36.3368 56.5311C36.5546 56.5524 36.7746 56.5712 37.001 56.5925C38.6421 56.7435 40.2832 56.8498 41.9307 56.9017C44.4236 57.0032 44.4236 57.0032 45.0706 57.7113C44.9843 59.0685 44.5983 60.1236 44.0699 61.3439C43.9513 61.6224 43.9513 61.6224 43.8306 61.9057C43.5804 62.4934 43.3281 63.0835 43.0758 63.6713C42.9098 64.0607 42.7415 64.4525 42.5755 64.8444C42.2563 65.5926 41.9372 66.3432 41.618 67.0914C41.508 67.3487 41.508 67.3487 41.3959 67.6107C41.2083 68.0521 41.0185 68.4935 40.8309 68.9349C40.6821 69.2842 40.6821 69.2842 40.5312 69.6407C40.4061 69.9357 40.4061 69.9357 40.2788 70.2331C40.0826 70.6839 40.0826 70.6839 40.1106 71.1655C40.1991 71.0498 40.2875 70.9365 40.3802 70.8185C41.4584 69.4495 42.6057 68.1819 43.7853 66.9168C44.6436 65.9868 45.4566 65.0332 46.2437 64.0324C46.6577 63.5131 47.0977 63.0292 47.5505 62.5501C48.1349 61.9175 48.6978 61.2826 49.2347 60.6028C49.3555 60.4517 49.4741 60.3006 49.5992 60.1449C49.8364 59.8427 50.0758 59.5406 50.313 59.2361C51.8333 57.2959 53.2436 55.6271 55.6373 55.1149C56.2002 55.0936 56.7566 55.0842 57.3194 55.0866C57.4876 55.0866 57.6558 55.0866 57.8283 55.0866C58.3847 55.0866 58.9389 55.0889 59.4953 55.0913C59.8813 55.0913 60.2652 55.0913 60.6512 55.0913C61.6647 55.0936 62.6804 55.096 63.694 55.0984C64.7291 55.1007 65.7642 55.1007 66.7993 55.1031C68.8286 55.1054 70.8578 55.1102 72.8892 55.1149C72.4428 55.6106 71.9986 56.0402 71.481 56.4461C71.3301 56.5665 71.1791 56.6845 71.0239 56.8073C70.8621 56.9347 70.6982 57.0622 70.53 57.1944C70.3597 57.3289 70.1871 57.4635 70.0125 57.6027C68.5698 58.7357 67.1142 59.8498 65.6585 60.9592C64.4595 61.875 63.2735 62.805 62.0939 63.7444C59.7239 65.6257 57.3323 67.488 54.8416 69.1733C53.7094 69.9475 52.6571 70.8279 51.5939 71.7131C50.4575 72.6525 49.2973 73.5447 48.1177 74.4204C47.0286 75.23 45.959 76.068 44.8959 76.9177C43.5589 77.9822 42.2067 79.0161 40.8374 80.031C39.4033 81.0956 38.0059 82.2002 36.6258 83.3497C35.5195 84.2679 34.3873 85.1318 33.2401 85.9839C31.9742 86.9281 30.7342 87.9053 29.4964 88.8895C28.4031 89.7582 27.3054 90.615 26.2013 91.4647C24.7565 92.5765 23.3224 93.7024 21.8926 94.8353C20.9222 95.6048 19.9518 96.3696 18.9771 97.1296C17.8406 98.0148 16.7106 98.9046 15.5806 99.7992C15.4167 99.929 15.2528 100.056 15.0846 100.191C14.2587 100.845 13.4306 101.501 12.6047 102.155C10.8903 103.514 9.16938 104.862 7.43556 106.191C6.06835 107.246 4.72271 108.332 3.38137 109.427C2.27725 110.326 1.15156 111.176 0 112C0.278187 111.2 0.59519 110.452 0.970419 109.701C1.07609 109.489 1.18175 109.278 1.28958 109.061C1.40171 108.837 1.51385 108.615 1.6303 108.384C1.74675 108.155 1.86105 107.924 1.97966 107.685C2.7409 106.17 3.5086 104.659 4.2871 103.158C5.47963 100.854 6.61826 98.5175 7.76335 96.1855C10.3749 90.8675 10.3749 90.8675 11.4553 88.8234C11.9836 87.8226 12.4839 86.8148 12.9432 85.7762C13.1934 85.2451 13.4737 84.7424 13.7605 84.2349C14.4463 83.0098 15.0199 81.7329 15.5892 80.4394C15.9558 79.6675 16.3764 78.9689 16.8206 78.2466C17.0384 77.7934 17.2497 77.3355 17.4546 76.8729C18.0002 75.6549 18.5824 74.47 19.1927 73.2898C19.3717 72.9357 19.5529 72.5817 19.7318 72.2276C19.8634 71.9656 19.8634 71.9656 19.9992 71.6965C20.1826 71.3378 20.3659 70.9766 20.547 70.6179C20.6376 70.4385 20.7303 70.2591 20.823 70.0726C20.9028 69.9145 20.9848 69.7563 21.0667 69.5911C21.3578 69.0222 21.6554 68.4534 21.953 67.8869C22.2571 67.2992 22.5612 66.7114 22.8631 66.1213C23.0399 65.7791 23.0399 65.7791 23.221 65.4274C23.4626 64.9577 23.7041 64.4879 23.9456 64.0159C24.6228 62.7011 25.315 61.4006 26.0331 60.1118C26.3717 59.4839 26.6649 58.8396 26.9561 58.1834C27.2795 57.4705 27.6397 56.7813 27.9977 56.0874C28.3147 55.4571 28.6079 54.8175 28.8969 54.1707C29.0392 54.1707 29.1816 54.1707 29.3282 54.1707C29.3994 53.7813 29.4705 53.3918 29.5439 52.9905C29.6862 52.9905 29.8285 52.9905 29.9752 52.9905C29.9946 52.8607 30.0161 52.7309 30.0377 52.5964C30.2296 51.9048 30.5402 51.3949 30.9046 50.7907C31.489 49.8088 32.0432 48.8221 32.5629 47.7977C32.7053 47.7977 32.8476 47.7977 32.9942 47.7977C33.0136 47.6655 33.0331 47.5357 33.0546 47.3988C33.2509 46.7096 33.5722 46.2399 33.9647 45.6569C34.396 45.0148 34.7022 44.5451 34.9351 43.7851C35.0774 43.7851 35.2197 43.7851 35.3664 43.7851C35.3664 43.5514 35.3664 43.3177 35.3664 43.077C35.5087 43.077 35.651 43.077 35.7977 43.077C35.7977 42.8433 35.7977 42.6096 35.7977 42.3688C35.94 42.3688 36.0823 42.3688 36.229 42.3688C36.229 42.1352 36.229 41.9015 36.229 41.6607C36.3713 41.6607 36.5136 41.6607 36.6603 41.6607C36.6818 41.5262 36.7055 41.3916 36.7293 41.2524C36.8996 40.6245 37.1563 40.2044 37.5013 39.6686C37.6889 39.3735 37.6889 39.3735 37.8808 39.0738C38.0771 38.7693 38.0771 38.7693 38.2776 38.4577C38.5364 38.0564 38.7952 37.6528 39.0518 37.2492C39.1661 37.0698 39.2825 36.8928 39.4012 36.7087C39.7138 36.2153 39.7138 36.2153 39.895 35.5237C40.0373 35.5237 40.1796 35.5237 40.3263 35.5237C40.3263 35.2901 40.3263 35.0564 40.3263 34.8156C40.4686 34.8156 40.6109 34.8156 40.7576 34.8156C40.7576 34.582 40.7576 34.3483 40.7576 34.1075C40.8999 34.1075 41.0422 34.1075 41.1889 34.1075C41.2342 33.888 41.2342 33.888 41.2838 33.6638C41.4045 33.1634 41.4045 33.1634 41.6202 32.6913C41.7625 32.6913 41.9048 32.6913 42.0515 32.6913C42.0515 32.4576 42.0515 32.2239 42.0515 31.9832C42.1938 31.9832 42.3361 31.9832 42.4828 31.9832C42.5626 31.7353 42.5626 31.7353 42.6445 31.4804C42.9507 30.7086 43.3173 30.0618 43.7767 29.3868C43.919 29.3868 44.0613 29.3868 44.208 29.3868C44.208 29.231 44.208 29.0752 44.208 28.9147C45.2366 28.3317 46.1984 28.3789 47.3284 28.3883Z" fill="#0CA16B"/>
</svg>
